<?xml version="1.0" encoding="utf-8" standalone="no"?>
<!DOCTYPE svg PUBLIC "-//W3C//DTD SVG 1.1//EN"
  "http://www.w3.org/Graphics/SVG/1.1/DTD/svg11.dtd">
<svg xmlns:xlink="http://www.w3.org/1999/xlink" width="460.8pt" height="345.6pt" viewBox="0 0 460.8 345.6" xmlns="http://www.w3.org/2000/svg" version="1.1">
 <metadata>
  <rdf:RDF xmlns:dc="http://purl.org/dc/elements/1.1/" xmlns:cc="http://creativecommons.org/ns#" xmlns:rdf="http://www.w3.org/1999/02/22-rdf-syntax-ns#">
   <cc:Work>
    <dc:type rdf:resource="http://purl.org/dc/dcmitype/StillImage"/>
    <dc:date>2024-10-03T01:28:51.070904</dc:date>
    <dc:format>image/svg+xml</dc:format>
    <dc:creator>
     <cc:Agent>
      <dc:title>Matplotlib v3.9.2, https://matplotlib.org/</dc:title>
     </cc:Agent>
    </dc:creator>
   </cc:Work>
  </rdf:RDF>
 </metadata>
 <defs>
  <style type="text/css">*{stroke-linejoin: round; stroke-linecap: butt}</style>
 </defs>
 <g id="figure_1">
  <g id="patch_1">
   <path d="M 0 345.6 
L 460.8 345.6 
L 460.8 0 
L 0 0 
z
" style="fill: #ffffff"/>
  </g>
  <g id="axes_1">
   <g id="patch_2">
    <path d="M 57.6 307.584 
L 414.72 307.584 
L 414.72 41.472 
L 57.6 41.472 
z
" style="fill: #ffffff"/>
   </g>
   <g id="matplotlib.axis_1">
    <g id="xtick_1">
     <g id="line2d_1">
      <defs>
       <path id="m36dd0e6716" d="M 0 0 
L 0 3.5 
" style="stroke: #000000; stroke-width: 0.8"/>
      </defs>
      <g>
       <use xlink:href="#m36dd0e6716" x="73.832727" y="307.584" style="stroke: #000000; stroke-width: 0.8"/>
      </g>
     </g>
     <g id="text_1">
      <!-- $\mathdefault{0.0}$ -->
      <g transform="translate(67.467688 321.502498) scale(0.1 -0.1)">
       <defs>
        <path id="CMR17-30" d="M 2688 2025 
C 2688 2416 2682 3080 2413 3591 
C 2176 4039 1798 4198 1466 4198 
C 1158 4198 768 4058 525 3597 
C 269 3118 243 2524 243 2025 
C 243 1661 250 1106 448 619 
C 723 -39 1216 -128 1466 -128 
C 1760 -128 2208 -7 2470 600 
C 2662 1042 2688 1559 2688 2025 
z
M 1466 -26 
C 1056 -26 813 325 723 812 
C 653 1188 653 1738 653 2096 
C 653 2588 653 2997 736 3387 
C 858 3929 1216 4096 1466 4096 
C 1728 4096 2067 3923 2189 3400 
C 2272 3036 2278 2607 2278 2096 
C 2278 1680 2278 1169 2202 792 
C 2067 95 1690 -26 1466 -26 
z
" transform="scale(0.015625)"/>
        <path id="CMMI12-3a" d="M 1178 307 
C 1178 492 1024 619 870 619 
C 685 619 557 466 557 313 
C 557 128 710 0 864 0 
C 1050 0 1178 153 1178 307 
z
" transform="scale(0.015625)"/>
       </defs>
       <use xlink:href="#CMR17-30" transform="scale(0.996264)"/>
       <use xlink:href="#CMMI12-3a" transform="translate(45.690477 0) scale(0.996264)"/>
       <use xlink:href="#CMR17-30" transform="translate(72.787654 0) scale(0.996264)"/>
      </g>
     </g>
    </g>
    <g id="xtick_2">
     <g id="line2d_2">
      <g>
       <use xlink:href="#m36dd0e6716" x="138.763636" y="307.584" style="stroke: #000000; stroke-width: 0.8"/>
      </g>
     </g>
     <g id="text_2">
      <!-- $\mathdefault{0.2}$ -->
      <g transform="translate(132.398597 321.502498) scale(0.1 -0.1)">
       <defs>
        <path id="CMR17-32" d="M 2669 989 
L 2554 989 
C 2490 536 2438 459 2413 420 
C 2381 369 1920 369 1830 369 
L 602 369 
C 832 619 1280 1072 1824 1597 
C 2214 1967 2669 2402 2669 3035 
C 2669 3790 2067 4224 1395 4224 
C 691 4224 262 3604 262 3030 
C 262 2780 448 2748 525 2748 
C 589 2748 781 2787 781 3010 
C 781 3207 614 3264 525 3264 
C 486 3264 448 3258 422 3245 
C 544 3790 915 4058 1306 4058 
C 1862 4058 2227 3617 2227 3035 
C 2227 2479 1901 2000 1536 1584 
L 262 146 
L 262 0 
L 2515 0 
L 2669 989 
z
" transform="scale(0.015625)"/>
       </defs>
       <use xlink:href="#CMR17-30" transform="scale(0.996264)"/>
       <use xlink:href="#CMMI12-3a" transform="translate(45.690477 0) scale(0.996264)"/>
       <use xlink:href="#CMR17-32" transform="translate(72.787654 0) scale(0.996264)"/>
      </g>
     </g>
    </g>
    <g id="xtick_3">
     <g id="line2d_3">
      <g>
       <use xlink:href="#m36dd0e6716" x="203.694545" y="307.584" style="stroke: #000000; stroke-width: 0.8"/>
      </g>
     </g>
     <g id="text_3">
      <!-- $\mathdefault{0.4}$ -->
      <g transform="translate(197.329506 321.502498) scale(0.1 -0.1)">
       <defs>
        <path id="CMR17-34" d="M 2150 4122 
C 2150 4256 2144 4256 2029 4256 
L 128 1254 
L 128 1088 
L 1779 1088 
L 1779 457 
C 1779 224 1766 160 1318 160 
L 1197 160 
L 1197 0 
C 1402 0 1747 0 1965 0 
C 2182 0 2528 0 2733 0 
L 2733 160 
L 2611 160 
C 2163 160 2150 224 2150 457 
L 2150 1088 
L 2803 1088 
L 2803 1254 
L 2150 1254 
L 2150 4122 
z
M 1798 3703 
L 1798 1254 
L 256 1254 
L 1798 3703 
z
" transform="scale(0.015625)"/>
       </defs>
       <use xlink:href="#CMR17-30" transform="scale(0.996264)"/>
       <use xlink:href="#CMMI12-3a" transform="translate(45.690477 0) scale(0.996264)"/>
       <use xlink:href="#CMR17-34" transform="translate(72.787654 0) scale(0.996264)"/>
      </g>
     </g>
    </g>
    <g id="xtick_4">
     <g id="line2d_4">
      <g>
       <use xlink:href="#m36dd0e6716" x="268.625455" y="307.584" style="stroke: #000000; stroke-width: 0.8"/>
      </g>
     </g>
     <g id="text_4">
      <!-- $\mathdefault{0.6}$ -->
      <g transform="translate(262.260415 321.502498) scale(0.1 -0.1)">
       <defs>
        <path id="CMR17-36" d="M 678 2176 
C 678 3690 1395 4032 1811 4032 
C 1946 4032 2272 4009 2400 3776 
C 2298 3776 2106 3776 2106 3553 
C 2106 3381 2246 3323 2336 3323 
C 2394 3323 2566 3348 2566 3560 
C 2566 3954 2246 4179 1805 4179 
C 1043 4179 243 3390 243 1984 
C 243 253 966 -128 1478 -128 
C 2099 -128 2688 427 2688 1283 
C 2688 2081 2170 2662 1517 2662 
C 1126 2662 838 2407 678 1960 
L 678 2176 
z
M 1478 25 
C 691 25 691 1200 691 1436 
C 691 1896 909 2560 1504 2560 
C 1613 2560 1926 2560 2138 2120 
C 2253 1870 2253 1609 2253 1289 
C 2253 944 2253 690 2118 434 
C 1978 171 1773 25 1478 25 
z
" transform="scale(0.015625)"/>
       </defs>
       <use xlink:href="#CMR17-30" transform="scale(0.996264)"/>
       <use xlink:href="#CMMI12-3a" transform="translate(45.690477 0) scale(0.996264)"/>
       <use xlink:href="#CMR17-36" transform="translate(72.787654 0) scale(0.996264)"/>
      </g>
     </g>
    </g>
    <g id="xtick_5">
     <g id="line2d_5">
      <g>
       <use xlink:href="#m36dd0e6716" x="333.556364" y="307.584" style="stroke: #000000; stroke-width: 0.8"/>
      </g>
     </g>
     <g id="text_5">
      <!-- $\mathdefault{0.8}$ -->
      <g transform="translate(327.191324 321.502498) scale(0.1 -0.1)">
       <defs>
        <path id="CMR17-38" d="M 1741 2264 
C 2144 2467 2554 2773 2554 3263 
C 2554 3841 1990 4179 1472 4179 
C 890 4179 378 3759 378 3180 
C 378 3021 416 2747 666 2505 
C 730 2442 998 2251 1171 2130 
C 883 1983 211 1634 211 934 
C 211 279 838 -128 1459 -128 
C 2144 -128 2720 362 2720 1010 
C 2720 1590 2330 1857 2074 2029 
L 1741 2264 
z
M 902 2822 
C 851 2854 595 3051 595 3351 
C 595 3739 998 4032 1459 4032 
C 1965 4032 2336 3676 2336 3262 
C 2336 2669 1670 2331 1638 2331 
C 1632 2331 1626 2331 1574 2370 
L 902 2822 
z
M 2080 1519 
C 2176 1449 2483 1240 2483 851 
C 2483 381 2010 25 1472 25 
C 890 25 448 438 448 940 
C 448 1443 838 1862 1280 2060 
L 2080 1519 
z
" transform="scale(0.015625)"/>
       </defs>
       <use xlink:href="#CMR17-30" transform="scale(0.996264)"/>
       <use xlink:href="#CMMI12-3a" transform="translate(45.690477 0) scale(0.996264)"/>
       <use xlink:href="#CMR17-38" transform="translate(72.787654 0) scale(0.996264)"/>
      </g>
     </g>
    </g>
    <g id="xtick_6">
     <g id="line2d_6">
      <g>
       <use xlink:href="#m36dd0e6716" x="398.487273" y="307.584" style="stroke: #000000; stroke-width: 0.8"/>
      </g>
     </g>
     <g id="text_6">
      <!-- $\mathdefault{1.0}$ -->
      <g transform="translate(392.122233 321.502498) scale(0.1 -0.1)">
       <defs>
        <path id="CMR17-31" d="M 1702 4058 
C 1702 4192 1696 4192 1606 4192 
C 1357 3916 979 3827 621 3827 
C 602 3827 570 3827 563 3808 
C 557 3795 557 3782 557 3648 
C 755 3648 1088 3686 1344 3839 
L 1344 461 
C 1344 236 1331 160 781 160 
L 589 160 
L 589 0 
C 896 0 1216 0 1523 0 
C 1830 0 2150 0 2458 0 
L 2458 160 
L 2266 160 
C 1715 160 1702 230 1702 458 
L 1702 4058 
z
" transform="scale(0.015625)"/>
       </defs>
       <use xlink:href="#CMR17-31" transform="scale(0.996264)"/>
       <use xlink:href="#CMMI12-3a" transform="translate(45.690477 0) scale(0.996264)"/>
       <use xlink:href="#CMR17-30" transform="translate(72.787654 0) scale(0.996264)"/>
      </g>
     </g>
    </g>
    <g id="text_7">
     <!-- $\varepsilon$ -->
     <g transform="translate(233.420988 335.741857) scale(0.12 -0.12)">
      <defs>
       <path id="CMMI12-22" d="M 890 1427 
C 1094 1345 1312 1345 1434 1345 
C 1600 1345 1933 1345 1933 1550 
C 1933 1678 1811 1728 1485 1728 
C 1325 1728 1133 1709 909 1613 
C 710 1708 634 1852 634 1990 
C 634 2379 1261 2606 1830 2606 
C 1939 2606 2170 2606 2438 2411 
C 2477 2387 2496 2367 2541 2367 
C 2618 2367 2701 2449 2701 2526 
C 2701 2639 2330 2880 1888 2880 
C 1171 2880 493 2449 493 1972 
C 493 1734 646 1586 755 1509 
C 384 1301 166 961 166 652 
C 166 219 563 -128 1178 -128 
C 2022 -128 2362 424 2362 512 
C 2362 543 2336 568 2304 568 
C 2272 568 2259 549 2234 512 
C 2163 395 1997 146 1235 146 
C 838 146 314 245 314 686 
C 314 898 474 1214 890 1427 
z
M 1088 1518 
C 1261 1600 1427 1600 1472 1600 
C 1651 1600 1683 1583 1786 1545 
C 1677 1472 1664 1472 1434 1472 
C 1318 1472 1216 1472 1088 1518 
z
" transform="scale(0.015625)"/>
      </defs>
      <use xlink:href="#CMMI12-22" transform="scale(0.996264)"/>
     </g>
    </g>
   </g>
   <g id="matplotlib.axis_2">
    <g id="ytick_1">
     <g id="line2d_7">
      <defs>
       <path id="mcb387f1a41" d="M 0 0 
L -3.5 0 
" style="stroke: #000000; stroke-width: 0.8"/>
      </defs>
      <g>
       <use xlink:href="#mcb387f1a41" x="57.6" y="295.488" style="stroke: #000000; stroke-width: 0.8"/>
      </g>
     </g>
     <g id="text_8">
      <!-- $\mathdefault{0.0}$ -->
      <g transform="translate(37.869921 298.947249) scale(0.1 -0.1)">
       <use xlink:href="#CMR17-30" transform="scale(0.996264)"/>
       <use xlink:href="#CMMI12-3a" transform="translate(45.690477 0) scale(0.996264)"/>
       <use xlink:href="#CMR17-30" transform="translate(72.787654 0) scale(0.996264)"/>
      </g>
     </g>
    </g>
    <g id="ytick_2">
     <g id="line2d_8">
      <g>
       <use xlink:href="#mcb387f1a41" x="57.6" y="254.281123" style="stroke: #000000; stroke-width: 0.8"/>
      </g>
     </g>
     <g id="text_9">
      <!-- $\mathdefault{0.5}$ -->
      <g transform="translate(37.869921 257.740372) scale(0.1 -0.1)">
       <defs>
        <path id="CMR17-35" d="M 730 3692 
C 794 3666 1056 3584 1325 3584 
C 1920 3584 2246 3911 2432 4100 
C 2432 4157 2432 4192 2394 4192 
C 2387 4192 2374 4192 2323 4163 
C 2099 4058 1837 3973 1517 3973 
C 1325 3973 1037 3999 723 4139 
C 653 4171 640 4171 634 4171 
C 602 4171 595 4164 595 4037 
L 595 2203 
C 595 2089 595 2057 659 2057 
C 691 2057 704 2070 736 2114 
C 941 2401 1222 2522 1542 2522 
C 1766 2522 2246 2382 2246 1289 
C 2246 1085 2246 715 2054 421 
C 1894 159 1645 25 1370 25 
C 947 25 518 320 403 814 
C 429 807 480 795 506 795 
C 589 795 749 840 749 1038 
C 749 1210 627 1280 506 1280 
C 358 1280 262 1190 262 1011 
C 262 454 704 -128 1382 -128 
C 2042 -128 2669 440 2669 1264 
C 2669 2030 2170 2624 1549 2624 
C 1222 2624 947 2503 730 2274 
L 730 3692 
z
" transform="scale(0.015625)"/>
       </defs>
       <use xlink:href="#CMR17-30" transform="scale(0.996264)"/>
       <use xlink:href="#CMMI12-3a" transform="translate(45.690477 0) scale(0.996264)"/>
       <use xlink:href="#CMR17-35" transform="translate(72.787654 0) scale(0.996264)"/>
      </g>
     </g>
    </g>
    <g id="ytick_3">
     <g id="line2d_9">
      <g>
       <use xlink:href="#mcb387f1a41" x="57.6" y="213.074245" style="stroke: #000000; stroke-width: 0.8"/>
      </g>
     </g>
     <g id="text_10">
      <!-- $\mathdefault{1.0}$ -->
      <g transform="translate(37.869921 216.533495) scale(0.1 -0.1)">
       <use xlink:href="#CMR17-31" transform="scale(0.996264)"/>
       <use xlink:href="#CMMI12-3a" transform="translate(45.690477 0) scale(0.996264)"/>
       <use xlink:href="#CMR17-30" transform="translate(72.787654 0) scale(0.996264)"/>
      </g>
     </g>
    </g>
    <g id="ytick_4">
     <g id="line2d_10">
      <g>
       <use xlink:href="#mcb387f1a41" x="57.6" y="171.867368" style="stroke: #000000; stroke-width: 0.8"/>
      </g>
     </g>
     <g id="text_11">
      <!-- $\mathdefault{1.5}$ -->
      <g transform="translate(37.869921 175.326617) scale(0.1 -0.1)">
       <use xlink:href="#CMR17-31" transform="scale(0.996264)"/>
       <use xlink:href="#CMMI12-3a" transform="translate(45.690477 0) scale(0.996264)"/>
       <use xlink:href="#CMR17-35" transform="translate(72.787654 0) scale(0.996264)"/>
      </g>
     </g>
    </g>
    <g id="ytick_5">
     <g id="line2d_11">
      <g>
       <use xlink:href="#mcb387f1a41" x="57.6" y="130.660491" style="stroke: #000000; stroke-width: 0.8"/>
      </g>
     </g>
     <g id="text_12">
      <!-- $\mathdefault{2.0}$ -->
      <g transform="translate(37.869921 134.11974) scale(0.1 -0.1)">
       <use xlink:href="#CMR17-32" transform="scale(0.996264)"/>
       <use xlink:href="#CMMI12-3a" transform="translate(45.690477 0) scale(0.996264)"/>
       <use xlink:href="#CMR17-30" transform="translate(72.787654 0) scale(0.996264)"/>
      </g>
     </g>
    </g>
    <g id="ytick_6">
     <g id="line2d_12">
      <g>
       <use xlink:href="#mcb387f1a41" x="57.6" y="89.453613" style="stroke: #000000; stroke-width: 0.8"/>
      </g>
     </g>
     <g id="text_13">
      <!-- $\mathdefault{2.5}$ -->
      <g transform="translate(37.869921 92.912863) scale(0.1 -0.1)">
       <use xlink:href="#CMR17-32" transform="scale(0.996264)"/>
       <use xlink:href="#CMMI12-3a" transform="translate(45.690477 0) scale(0.996264)"/>
       <use xlink:href="#CMR17-35" transform="translate(72.787654 0) scale(0.996264)"/>
      </g>
     </g>
    </g>
    <g id="ytick_7">
     <g id="line2d_13">
      <g>
       <use xlink:href="#mcb387f1a41" x="57.6" y="48.246736" style="stroke: #000000; stroke-width: 0.8"/>
      </g>
     </g>
     <g id="text_14">
      <!-- $\mathdefault{3.0}$ -->
      <g transform="translate(37.869921 51.705985) scale(0.1 -0.1)">
       <defs>
        <path id="CMR17-33" d="M 1414 2157 
C 1984 2157 2234 1662 2234 1090 
C 2234 320 1824 25 1453 25 
C 1114 25 563 194 390 693 
C 422 680 454 680 486 680 
C 640 680 755 782 755 948 
C 755 1133 614 1216 486 1216 
C 378 1216 211 1165 211 926 
C 211 335 787 -128 1466 -128 
C 2176 -128 2720 430 2720 1085 
C 2720 1707 2208 2157 1600 2227 
C 2086 2328 2554 2756 2554 3329 
C 2554 3820 2048 4179 1472 4179 
C 890 4179 378 3829 378 3329 
C 378 3110 544 3072 627 3072 
C 762 3072 877 3155 877 3321 
C 877 3486 762 3569 627 3569 
C 602 3569 570 3569 544 3557 
C 730 3959 1235 4032 1459 4032 
C 1683 4032 2106 3925 2106 3320 
C 2106 3143 2080 2828 1862 2550 
C 1670 2304 1453 2304 1242 2284 
C 1210 2284 1062 2269 1037 2269 
C 992 2263 966 2257 966 2208 
C 966 2163 973 2157 1101 2157 
L 1414 2157 
z
" transform="scale(0.015625)"/>
       </defs>
       <use xlink:href="#CMR17-33" transform="scale(0.996264)"/>
       <use xlink:href="#CMMI12-3a" transform="translate(45.690477 0) scale(0.996264)"/>
       <use xlink:href="#CMR17-30" transform="translate(72.787654 0) scale(0.996264)"/>
      </g>
     </g>
    </g>
    <g id="text_15">
     <!-- $\rho(B)$ -->
     <g transform="translate(30.881129 186.847312) rotate(-90) scale(0.12 -0.12)">
      <defs>
       <path id="CMMI12-1a" d="M 198 -1107 
C 192 -1139 179 -1177 179 -1216 
C 179 -1312 256 -1376 352 -1376 
C 448 -1376 538 -1312 576 -1222 
C 602 -1164 781 -397 986 390 
C 1114 70 1350 -64 1600 -64 
C 2323 -64 3142 830 3142 1795 
C 3142 2478 2726 2816 2285 2816 
C 1722 2816 1037 2235 826 1385 
L 198 -1107 
z
M 1594 64 
C 1158 64 1050 569 1050 645 
C 1050 684 1210 1295 1229 1391 
C 1555 2670 2182 2670 2278 2670 
C 2566 2670 2726 2410 2726 2036 
C 2726 1712 2554 1084 2445 819 
C 2253 381 1920 64 1594 64 
z
" transform="scale(0.015625)"/>
       <path id="CMR17-28" d="M 1958 -1561 
C 1958 -1555 1958 -1542 1939 -1523 
C 1645 -1224 858 -407 858 1581 
C 858 3569 1632 4379 1946 4697 
C 1946 4704 1958 4717 1958 4736 
C 1958 4755 1939 4768 1914 4768 
C 1843 4768 1299 4296 986 3594 
C 666 2887 576 2199 576 1588 
C 576 1128 621 351 1005 -471 
C 1312 -1135 1837 -1600 1914 -1600 
C 1946 -1600 1958 -1587 1958 -1561 
z
" transform="scale(0.015625)"/>
       <path id="CMMI12-42" d="M 2342 3921 
C 2400 4160 2426 4160 2675 4160 
L 3507 4160 
C 4230 4160 4230 3544 4230 3485 
C 4230 2966 3712 2304 2867 2304 
L 1946 2304 
L 2342 3921 
z
M 3424 2275 
C 4122 2402 4755 2886 4755 3473 
C 4755 3970 4314 4352 3590 4352 
L 1536 4352 
C 1414 4352 1357 4352 1357 4226 
C 1357 4160 1414 4160 1510 4160 
C 1901 4160 1901 4112 1901 4044 
C 1901 4032 1901 3993 1875 3897 
L 1011 472 
C 954 249 941 185 493 185 
C 371 185 307 185 307 70 
C 307 0 346 0 474 0 
L 2669 0 
C 3648 0 4403 739 4403 1383 
C 4403 1906 3942 2224 3424 2275 
z
M 2515 185 
L 1651 185 
C 1562 185 1549 185 1510 192 
C 1440 198 1434 211 1434 261 
C 1434 305 1446 343 1459 399 
L 1907 2176 
L 3110 2176 
C 3866 2176 3866 1483 3866 1433 
C 3866 828 3309 185 2515 185 
z
" transform="scale(0.015625)"/>
       <path id="CMR17-29" d="M 1683 1581 
C 1683 2040 1638 2817 1254 3639 
C 947 4303 422 4768 346 4768 
C 326 4768 301 4761 301 4729 
C 301 4717 307 4710 314 4697 
C 621 4378 1402 3568 1402 1584 
C 1402 -407 627 -1217 314 -1537 
C 307 -1549 301 -1556 301 -1568 
C 301 -1600 326 -1600 346 -1600 
C 416 -1600 960 -1128 1274 -426 
C 1594 281 1683 969 1683 1581 
z
" transform="scale(0.015625)"/>
      </defs>
      <use xlink:href="#CMMI12-1a" transform="scale(0.996264)"/>
      <use xlink:href="#CMR17-28" transform="translate(50.314373 0) scale(0.996264)"/>
      <use xlink:href="#CMMI12-42" transform="translate(85.595141 0) scale(0.996264)"/>
      <use xlink:href="#CMR17-29" transform="translate(164.730664 0) scale(0.996264)"/>
     </g>
    </g>
   </g>
   <g id="line2d_14">
    <path d="M 73.832727 295.488 
L 106.298182 280.246701 
L 138.763636 263.054341 
L 171.229091 243.890872 
L 203.694545 222.741388 
L 236.16 199.593962 
L 268.625455 174.438489 
L 301.090909 147.266042 
L 333.556364 118.068475 
L 366.021818 86.838193 
L 398.487273 53.568 
" clip-path="url(#p65827c22ef)" style="fill: none; stroke: #1f77b4; stroke-width: 1.5; stroke-linecap: square"/>
    <defs>
     <path id="m5c71ca4e18" d="M 0 3 
C 0.795609 3 1.55874 2.683901 2.12132 2.12132 
C 2.683901 1.55874 3 0.795609 3 0 
C 3 -0.795609 2.683901 -1.55874 2.12132 -2.12132 
C 1.55874 -2.683901 0.795609 -3 0 -3 
C -0.795609 -3 -1.55874 -2.683901 -2.12132 -2.12132 
C -2.683901 -1.55874 -3 -0.795609 -3 0 
C -3 0.795609 -2.683901 1.55874 -2.12132 2.12132 
C -1.55874 2.683901 -0.795609 3 0 3 
z
" style="stroke: #1f77b4"/>
    </defs>
    <g clip-path="url(#p65827c22ef)">
     <use xlink:href="#m5c71ca4e18" x="73.832727" y="295.488" style="fill: #1f77b4; stroke: #1f77b4"/>
     <use xlink:href="#m5c71ca4e18" x="106.298182" y="280.246701" style="fill: #1f77b4; stroke: #1f77b4"/>
     <use xlink:href="#m5c71ca4e18" x="138.763636" y="263.054341" style="fill: #1f77b4; stroke: #1f77b4"/>
     <use xlink:href="#m5c71ca4e18" x="171.229091" y="243.890872" style="fill: #1f77b4; stroke: #1f77b4"/>
     <use xlink:href="#m5c71ca4e18" x="203.694545" y="222.741388" style="fill: #1f77b4; stroke: #1f77b4"/>
     <use xlink:href="#m5c71ca4e18" x="236.16" y="199.593962" style="fill: #1f77b4; stroke: #1f77b4"/>
     <use xlink:href="#m5c71ca4e18" x="268.625455" y="174.438489" style="fill: #1f77b4; stroke: #1f77b4"/>
     <use xlink:href="#m5c71ca4e18" x="301.090909" y="147.266042" style="fill: #1f77b4; stroke: #1f77b4"/>
     <use xlink:href="#m5c71ca4e18" x="333.556364" y="118.068475" style="fill: #1f77b4; stroke: #1f77b4"/>
     <use xlink:href="#m5c71ca4e18" x="366.021818" y="86.838193" style="fill: #1f77b4; stroke: #1f77b4"/>
     <use xlink:href="#m5c71ca4e18" x="398.487273" y="53.568" style="fill: #1f77b4; stroke: #1f77b4"/>
    </g>
   </g>
   <g id="line2d_15">
    <path d="M 73.832727 295.488 
L 106.298182 293.772146 
L 138.763636 288.737076 
L 171.229091 280.705336 
L 203.694545 270.15313 
L 236.16 257.562333 
L 268.625455 243.039958 
L 301.090909 215.307674 
L 333.556364 188.382188 
L 366.021818 171.026519 
L 398.487273 129.028625 
" clip-path="url(#p65827c22ef)" style="fill: none; stroke: #ff7f0e; stroke-width: 1.5; stroke-linecap: square"/>
    <defs>
     <path id="mf2ab995e63" d="M 0 3 
C 0.795609 3 1.55874 2.683901 2.12132 2.12132 
C 2.683901 1.55874 3 0.795609 3 0 
C 3 -0.795609 2.683901 -1.55874 2.12132 -2.12132 
C 1.55874 -2.683901 0.795609 -3 0 -3 
C -0.795609 -3 -1.55874 -2.683901 -2.12132 -2.12132 
C -2.683901 -1.55874 -3 -0.795609 -3 0 
C -3 0.795609 -2.683901 1.55874 -2.12132 2.12132 
C -1.55874 2.683901 -0.795609 3 0 3 
z
" style="stroke: #ff7f0e"/>
    </defs>
    <g clip-path="url(#p65827c22ef)">
     <use xlink:href="#mf2ab995e63" x="73.832727" y="295.488" style="fill: #ff7f0e; stroke: #ff7f0e"/>
     <use xlink:href="#mf2ab995e63" x="106.298182" y="293.772146" style="fill: #ff7f0e; stroke: #ff7f0e"/>
     <use xlink:href="#mf2ab995e63" x="138.763636" y="288.737076" style="fill: #ff7f0e; stroke: #ff7f0e"/>
     <use xlink:href="#mf2ab995e63" x="171.229091" y="280.705336" style="fill: #ff7f0e; stroke: #ff7f0e"/>
     <use xlink:href="#mf2ab995e63" x="203.694545" y="270.15313" style="fill: #ff7f0e; stroke: #ff7f0e"/>
     <use xlink:href="#mf2ab995e63" x="236.16" y="257.562333" style="fill: #ff7f0e; stroke: #ff7f0e"/>
     <use xlink:href="#mf2ab995e63" x="268.625455" y="243.039958" style="fill: #ff7f0e; stroke: #ff7f0e"/>
     <use xlink:href="#mf2ab995e63" x="301.090909" y="215.307674" style="fill: #ff7f0e; stroke: #ff7f0e"/>
     <use xlink:href="#mf2ab995e63" x="333.556364" y="188.382188" style="fill: #ff7f0e; stroke: #ff7f0e"/>
     <use xlink:href="#mf2ab995e63" x="366.021818" y="171.026519" style="fill: #ff7f0e; stroke: #ff7f0e"/>
     <use xlink:href="#mf2ab995e63" x="398.487273" y="129.028625" style="fill: #ff7f0e; stroke: #ff7f0e"/>
    </g>
   </g>
   <g id="patch_3">
    <path d="M 57.6 307.584 
L 57.6 41.472 
" style="fill: none; stroke: #000000; stroke-width: 0.8; stroke-linejoin: miter; stroke-linecap: square"/>
   </g>
   <g id="patch_4">
    <path d="M 414.72 307.584 
L 414.72 41.472 
" style="fill: none; stroke: #000000; stroke-width: 0.8; stroke-linejoin: miter; stroke-linecap: square"/>
   </g>
   <g id="patch_5">
    <path d="M 57.6 307.584 
L 414.72 307.584 
" style="fill: none; stroke: #000000; stroke-width: 0.8; stroke-linejoin: miter; stroke-linecap: square"/>
   </g>
   <g id="patch_6">
    <path d="M 57.6 41.472 
L 414.72 41.472 
" style="fill: none; stroke: #000000; stroke-width: 0.8; stroke-linejoin: miter; stroke-linecap: square"/>
   </g>
   <g id="text_16">
    <!-- $\varepsilon$ and spectral radius -->
    <g transform="translate(177.000014 35.472) scale(0.14 -0.14)">
     <defs>
      <path id="CMSS17-61" d="M 2406 1791 
C 2406 2392 1978 2808 1402 2808 
C 1120 2808 813 2757 461 2553 
L 499 2135 
C 659 2248 934 2432 1395 2432 
C 1722 2432 1920 2180 1920 1782 
L 1920 1536 
C 896 1536 256 1238 256 726 
C 256 461 416 -64 947 -64 
C 1043 -64 1562 -64 1933 217 
L 1933 -19 
L 2406 -19 
L 2406 1791 
z
M 1920 816 
C 1920 701 1920 548 1728 434 
C 1562 325 1350 325 1261 325 
C 941 325 723 511 723 744 
C 723 1211 1722 1211 1920 1211 
L 1920 816 
z
" transform="scale(0.015625)"/>
      <path id="CMSS17-6e" d="M 2618 1877 
C 2618 2283 2522 2816 1798 2816 
C 1389 2816 1120 2606 941 2389 
L 941 2758 
L 474 2758 
L 474 0 
L 960 0 
L 960 1559 
C 960 1964 1114 2428 1549 2428 
C 2112 2428 2131 2048 2131 1829 
L 2131 0 
L 2618 0 
L 2618 1877 
z
" transform="scale(0.015625)"/>
      <path id="CMSS17-64" d="M 2611 4416 
L 2138 4416 
L 2138 2438 
C 1939 2603 1613 2756 1254 2756 
C 672 2756 211 2131 211 1347 
C 211 562 666 -64 1235 -64 
C 1677 -64 1971 172 2125 306 
L 2125 -13 
L 2611 -13 
L 2611 4416 
z
M 2125 836 
C 2125 747 2125 653 1926 482 
C 1798 375 1645 325 1498 325 
C 1152 325 698 576 698 1340 
C 698 2134 1210 2368 1562 2368 
C 1798 2368 1990 2254 2125 2065 
L 2125 836 
z
" transform="scale(0.015625)"/>
      <path id="CMSS17-73" d="M 2061 2627 
C 1683 2807 1389 2807 1197 2807 
C 742 2807 198 2648 198 2003 
C 198 1359 902 1218 1094 1179 
C 1389 1122 1715 1058 1715 740 
C 1715 337 1254 337 1171 337 
C 915 337 563 407 243 638 
L 166 210 
C 531 0 883 -64 1178 -64 
C 1965 -64 2163 416 2163 781 
C 2163 1094 1984 1305 1862 1401 
C 1651 1568 1574 1587 1050 1696 
C 960 1709 646 1779 646 2066 
C 646 2432 1050 2432 1139 2432 
C 1555 2432 1811 2303 1984 2208 
L 2061 2627 
z
" transform="scale(0.015625)"/>
      <path id="CMSS17-70" d="M 966 333 
C 1178 129 1466 -5 1773 -5 
C 2368 -5 2880 603 2880 1412 
C 2880 2159 2496 2816 1946 2816 
C 1626 2816 1242 2702 954 2472 
L 954 2765 
L 480 2765 
L 480 -1216 
L 966 -1216 
L 966 333 
z
M 966 2100 
C 1018 2176 1235 2415 1587 2415 
C 2035 2415 2394 1960 2394 1412 
C 2394 787 1958 384 1530 384 
C 1402 384 1267 415 1139 523 
C 966 674 966 768 966 857 
L 966 2100 
z
" transform="scale(0.015625)"/>
      <path id="CMSS17-65" d="M 2502 1377 
C 2502 1590 2490 2003 2285 2345 
C 2061 2713 1696 2816 1421 2816 
C 755 2816 192 2188 192 1375 
C 192 582 774 -64 1510 -64 
C 1798 -64 2150 19 2470 248 
C 2470 274 2458 414 2451 420 
C 2451 433 2432 630 2432 656 
C 2125 407 1773 325 1517 325 
C 1107 325 666 667 646 1377 
L 2502 1377 
z
M 698 1728 
C 781 2084 1062 2421 1421 2421 
C 1517 2421 1965 2421 2080 1728 
L 698 1728 
z
" transform="scale(0.015625)"/>
      <path id="CMSS17-63" d="M 2464 2541 
C 2464 2585 2170 2714 2093 2739 
C 1882 2816 1613 2816 1542 2816 
C 710 2816 211 2093 211 1363 
C 211 595 768 -64 1517 -64 
C 1946 -64 2253 76 2502 242 
L 2464 664 
C 2189 453 1869 337 1523 337 
C 1024 337 698 774 698 1369 
C 698 1831 909 2414 1549 2414 
C 1901 2414 2099 2343 2394 2145 
L 2464 2541 
z
" transform="scale(0.015625)"/>
      <path id="CMSS17-74" d="M 1069 2368 
L 1901 2368 
L 1901 2737 
L 1069 2737 
L 1069 3520 
L 614 3520 
L 614 2737 
L 109 2737 
L 109 2368 
L 602 2368 
L 602 749 
C 602 384 685 -64 1107 -64 
C 1427 -64 1722 25 2003 172 
L 1901 548 
C 1747 414 1562 337 1363 337 
C 1082 337 1069 696 1069 856 
L 1069 2368 
z
" transform="scale(0.015625)"/>
      <path id="CMSS17-72" d="M 954 1363 
C 954 1965 1395 2368 1958 2368 
L 1958 2789 
C 1549 2789 1165 2585 934 2253 
L 934 2758 
L 480 2758 
L 480 0 
L 954 0 
L 954 1363 
z
" transform="scale(0.015625)"/>
      <path id="CMSS17-6c" d="M 947 4416 
L 474 4416 
L 474 0 
L 947 0 
L 947 4416 
z
" transform="scale(0.015625)"/>
      <path id="CMSS17-69" d="M 979 4183 
L 442 4183 
L 442 3648 
L 979 3648 
L 979 4183 
z
M 947 2739 
L 474 2739 
L 474 0 
L 947 0 
L 947 2739 
z
" transform="scale(0.015625)"/>
      <path id="CMSS17-75" d="M 2618 2739 
L 2131 2739 
L 2131 972 
C 2131 498 1786 306 1421 306 
C 998 306 960 447 960 709 
L 960 2739 
L 474 2739 
L 474 678 
C 474 179 646 -64 1088 -64 
C 1306 -64 1798 -13 2144 306 
L 2144 0 
L 2618 0 
L 2618 2739 
z
" transform="scale(0.015625)"/>
     </defs>
     <use xlink:href="#CMMI12-22" transform="scale(0.996264)"/>
     <use xlink:href="#CMSS17-61" transform="translate(76.879305 0) scale(0.996264)"/>
     <use xlink:href="#CMSS17-6e" transform="translate(121.801226 0) scale(0.996264)"/>
     <use xlink:href="#CMSS17-64" transform="translate(170.006169 0) scale(0.996264)"/>
     <use xlink:href="#CMSS17-73" transform="translate(249.440225 0) scale(0.996264)"/>
     <use xlink:href="#CMSS17-70" transform="translate(285.353767 0) scale(0.996264)"/>
     <use xlink:href="#CMSS17-65" transform="translate(336.161149 0) scale(0.996264)"/>
     <use xlink:href="#CMSS17-63" transform="translate(377.799971 0) scale(0.996264)"/>
     <use xlink:href="#CMSS17-74" transform="translate(419.438793 0) scale(0.996264)"/>
     <use xlink:href="#CMSS17-72" transform="translate(453.270359 0) scale(0.996264)"/>
     <use xlink:href="#CMSS17-61" transform="translate(485.180132 0) scale(0.996264)"/>
     <use xlink:href="#CMSS17-6c" transform="translate(530.102053 0) scale(0.996264)"/>
     <use xlink:href="#CMSS17-72" transform="translate(583.511888 0) scale(0.996264)"/>
     <use xlink:href="#CMSS17-61" transform="translate(615.421661 0) scale(0.996264)"/>
     <use xlink:href="#CMSS17-64" transform="translate(660.343582 0) scale(0.996264)"/>
     <use xlink:href="#CMSS17-69" transform="translate(708.548525 0) scale(0.996264)"/>
     <use xlink:href="#CMSS17-75" transform="translate(730.729248 0) scale(0.996264)"/>
     <use xlink:href="#CMSS17-73" transform="translate(778.934191 0) scale(0.996264)"/>
    </g>
   </g>
   <g id="legend_1">
    <g id="patch_7">
     <path d="M 64.6 77.346357 
L 148.433441 77.346357 
Q 150.433441 77.346357 150.433441 75.346357 
L 150.433441 48.472 
Q 150.433441 46.472 148.433441 46.472 
L 64.6 46.472 
Q 62.6 46.472 62.6 48.472 
L 62.6 75.346357 
Q 62.6 77.346357 64.6 77.346357 
z
" style="fill: #ffffff; opacity: 0.8; stroke: #cccccc; stroke-linejoin: miter"/>
    </g>
    <g id="line2d_16">
     <path d="M 66.6 53.972 
L 76.6 53.972 
L 86.6 53.972 
" style="fill: none; stroke: #1f77b4; stroke-width: 1.5; stroke-linecap: square"/>
     <g>
      <use xlink:href="#m5c71ca4e18" x="76.6" y="53.972" style="fill: #1f77b4; stroke: #1f77b4"/>
     </g>
    </g>
    <g id="text_17">
     <!-- Jacobi -->
     <g transform="translate(94.6 57.472) scale(0.1 -0.1)">
      <defs>
       <path id="CMSS17-4a" d="M 2336 4384 
L 1811 4384 
L 1811 940 
C 1811 636 1683 261 1107 261 
C 781 261 506 414 333 604 
L 250 140 
C 646 -71 1011 -128 1280 -128 
C 1901 -128 2336 228 2336 920 
L 2336 4384 
z
" transform="scale(0.015625)"/>
       <path id="CMSS17-6f" d="M 2829 1356 
C 2829 2176 2221 2816 1504 2816 
C 768 2816 173 2157 173 1356 
C 173 544 787 -64 1498 -64 
C 2227 -64 2829 563 2829 1356 
z
M 1504 337 
C 1050 337 659 709 659 1408 
C 659 2151 1114 2427 1498 2427 
C 1914 2427 2342 2126 2342 1408 
C 2342 683 1926 337 1504 337 
z
" transform="scale(0.015625)"/>
       <path id="CMSS17-62" d="M 954 4416 
L 480 4416 
L 480 -13 
L 966 -13 
L 966 274 
C 1210 38 1504 -64 1766 -64 
C 2381 -64 2880 549 2880 1352 
C 2880 2086 2496 2756 1926 2756 
C 1523 2756 1165 2591 954 2419 
L 954 4416 
z
M 966 2046 
C 1107 2222 1306 2368 1587 2368 
C 1965 2368 2394 2097 2394 1352 
C 2394 558 1882 325 1530 325 
C 1402 325 1267 356 1139 464 
C 966 615 966 709 966 797 
L 966 2046 
z
" transform="scale(0.015625)"/>
      </defs>
      <use xlink:href="#CMSS17-4a" transform="scale(0.996264)"/>
      <use xlink:href="#CMSS17-61" transform="translate(44.121076 0) scale(0.996264)"/>
      <use xlink:href="#CMSS17-63" transform="translate(89.042996 0) scale(0.996264)"/>
      <use xlink:href="#CMSS17-6f" transform="translate(130.681818 0) scale(0.996264)"/>
      <use xlink:href="#CMSS17-62" transform="translate(177.525442 0) scale(0.996264)"/>
      <use xlink:href="#CMSS17-69" transform="translate(225.730385 0) scale(0.996264)"/>
     </g>
    </g>
    <g id="line2d_17">
     <path d="M 66.6 67.909178 
L 76.6 67.909178 
L 86.6 67.909178 
" style="fill: none; stroke: #ff7f0e; stroke-width: 1.5; stroke-linecap: square"/>
     <g>
      <use xlink:href="#mf2ab995e63" x="76.6" y="67.909178" style="fill: #ff7f0e; stroke: #ff7f0e"/>
     </g>
    </g>
    <g id="text_18">
     <!-- Gauss-Seidel -->
     <g transform="translate(94.6 71.409178) scale(0.1 -0.1)">
      <defs>
       <path id="CMSS17-47" d="M 3610 1856 
L 2336 1856 
L 2336 1461 
L 3123 1461 
L 3123 471 
C 2874 401 2618 350 2362 350 
C 1466 350 934 1301 934 2200 
C 934 3095 1491 4032 2362 4032 
C 2854 4032 3130 3881 3469 3627 
L 3552 4134 
C 3130 4351 2867 4440 2387 4440 
C 1146 4440 397 3324 397 2182 
C 397 1090 1152 -64 2349 -64 
C 2797 -64 3213 51 3610 248 
L 3610 1856 
z
" transform="scale(0.015625)"/>
       <path id="CMSS17-2d" d="M 1664 1216 
L 1664 1585 
L 64 1585 
L 64 1216 
L 1664 1216 
z
" transform="scale(0.015625)"/>
       <path id="CMSS17-53" d="M 2797 4169 
C 2515 4334 2208 4480 1690 4480 
C 864 4480 333 3879 333 3266 
C 333 3025 403 2753 653 2475 
C 902 2196 1184 2121 1542 2033 
C 1690 1994 1939 1924 1984 1906 
C 2342 1767 2515 1444 2515 1140 
C 2515 742 2202 318 1645 318 
C 1453 318 890 318 358 819 
L 269 318 
C 794 -64 1363 -128 1651 -128 
C 2438 -128 3002 488 3002 1186 
C 3002 1440 2925 1763 2656 2061 
C 2394 2347 2163 2410 1638 2549 
C 1338 2626 1146 2677 986 2873 
C 877 3013 819 3146 819 3317 
C 819 3673 1126 4060 1690 4060 
C 1971 4060 2336 4002 2707 3660 
L 2797 4169 
z
" transform="scale(0.015625)"/>
      </defs>
      <use xlink:href="#CMSS17-47" transform="scale(0.996264)"/>
      <use xlink:href="#CMSS17-61" transform="translate(62.458226 0) scale(0.996264)"/>
      <use xlink:href="#CMSS17-75" transform="translate(107.380146 0) scale(0.996264)"/>
      <use xlink:href="#CMSS17-73" transform="translate(155.585089 0) scale(0.996264)"/>
      <use xlink:href="#CMSS17-73" transform="translate(191.498631 0) scale(0.996264)"/>
      <use xlink:href="#CMSS17-2d" transform="translate(227.412173 0) scale(0.996264)"/>
      <use xlink:href="#CMSS17-53" transform="translate(258.641286 0) scale(0.996264)"/>
      <use xlink:href="#CMSS17-65" transform="translate(310.689802 0) scale(0.996264)"/>
      <use xlink:href="#CMSS17-69" transform="translate(352.328624 0) scale(0.996264)"/>
      <use xlink:href="#CMSS17-64" transform="translate(374.509347 0) scale(0.996264)"/>
      <use xlink:href="#CMSS17-65" transform="translate(422.71429 0) scale(0.996264)"/>
      <use xlink:href="#CMSS17-6c" transform="translate(464.353112 0) scale(0.996264)"/>
     </g>
    </g>
   </g>
  </g>
 </g>
 <defs>
  <clipPath id="p65827c22ef">
   <rect x="57.6" y="41.472" width="357.12" height="266.112"/>
  </clipPath>
 </defs>
</svg>
